HIERARCHY
ROOT Hips
{
	OFFSET -3.958830 18.904000 13.208200
	CHANNELS 6 Xposition Yposition Zposition Zrotation Yrotation Xrotation 
	JOINT LHipJoint
	{
		OFFSET 0.000000 0.000000 0.000000
		CHANNELS 3 Zrotation Yrotation Xrotation
		JOINT LeftUpLeg
		{
			OFFSET 1.800000 -1.400000 0.085000
			CHANNELS 3 Zrotation Yrotation Xrotation
			JOINT LeftLeg
			{
				OFFSET 2.215000 -6.000000 0.000000
				CHANNELS 3 Zrotation Yrotation Xrotation
				JOINT LeftFoot
				{
					OFFSET 2.500000 -6.900000 0.000000
					CHANNELS 3 Zrotation Yrotation Xrotation
					JOINT LeftToeBase
					{
						OFFSET 0.200000 -0.500000 1.950000
						CHANNELS 3 Zrotation Yrotation Xrotation
						End Site
						{
							OFFSET 0.000000 0.000000 0.000000
						}
					}
				}
			}
		}
	}
	JOINT RHipJoint
	{
		OFFSET 0.000000 0.000000 0.000000
		CHANNELS 3 Zrotation Yrotation Xrotation
		JOINT RightUpLeg
		{
			OFFSET -1.800000 -1.400000 0.085000
			CHANNELS 3 Zrotation Yrotation Xrotation
			JOINT RightLeg
			{
				OFFSET -2.215000 -6.000000 0.000000
				CHANNELS 3 Zrotation Yrotation Xrotation
				JOINT RightFoot
				{
					OFFSET -2.500000 -6.900000 0.000000
					CHANNELS 3 Zrotation Yrotation Xrotation
					JOINT RightToeBase
					{
						OFFSET -0.200000 -0.500000 1.950000
						CHANNELS 3 Zrotation Yrotation Xrotation
						End Site
						{
							OFFSET 0.000000 0.000000 0.000000
						}
					}
				}
			}
		}
	}
	JOINT LowerBack
	{
		OFFSET 0.000000 0.000000 0.000000
		CHANNELS 3 Zrotation Yrotation Xrotation
		JOINT Spine
		{
			OFFSET -0.087000 1.940000 -0.288900
			CHANNELS 3 Zrotation Yrotation Xrotation
			JOINT Spine1
			{
				OFFSET 0.000000 1.950000 0.060000
				CHANNELS 3 Zrotation Yrotation Xrotation
				JOINT Neck
				{
					OFFSET 0.000000 0.000000 0.000000
					CHANNELS 3 Zrotation Yrotation Xrotation
					JOINT Neck1
					{
						OFFSET 0.000000 1.600000 0.340000
						CHANNELS 3 Zrotation Yrotation Xrotation
						JOINT Head
						{
							OFFSET 0.000000 1.667000 -0.240000
							CHANNELS 3 Zrotation Yrotation Xrotation
							End Site
							{
								OFFSET 0.000000 0.000000 0.000000
							}
						}
					}
				}
				JOINT LeftShoulder
				{
					OFFSET 0.000000 0.000000 0.000000
					CHANNELS 3 Zrotation Yrotation Xrotation
					JOINT LeftArm
					{
						OFFSET 2.700000 1.550000 -0.730000
						CHANNELS 3 Zrotation Yrotation Xrotation
						JOINT LeftForeArm
						{
							OFFSET 5.450000 0.000000 0.000000
							CHANNELS 3 Zrotation Yrotation Xrotation
							JOINT LeftHand
							{
								OFFSET 3.450000 0.000000 0.000000
								CHANNELS 3 Zrotation Yrotation Xrotation
								JOINT LeftHandIndex1
								{
									OFFSET 0.750000 0.000000 0.000000
									CHANNELS 3 Zrotation Yrotation Xrotation
									End Site
									{
										OFFSET 0.000000 0.000000 0.000000
									}
								}
							}
						}
					}
				}
				JOINT RightShoulder
				{
					OFFSET 0.000000 0.000000 0.000000
					CHANNELS 3 Zrotation Yrotation Xrotation
					JOINT RightArm
					{
						OFFSET -2.700000 1.550000 -0.730000
						CHANNELS 3 Zrotation Yrotation Xrotation
						JOINT RightForeArm
						{
							OFFSET -5.450000 0.000000 0.000000
							CHANNELS 3 Zrotation Yrotation Xrotation
							JOINT RightHand
							{
								OFFSET -3.450000 0.000000 0.000000
								CHANNELS 3 Zrotation Yrotation Xrotation
								JOINT RightHandIndex1
								{
									OFFSET -0.750000 0.000000 0.000000
									CHANNELS 3 Zrotation Yrotation Xrotation
									End Site
									{
										OFFSET 0.000000 0.000000 0.000000
									}
								}
							}
						}
					}
				}
			}
		}
	}
}
MOTION
Frames: 4
Frame Time: 0.016667
-0.423030 17.865130 1.516320 -6.396780 15.385380 -6.976730 -15.379589 13.737265 3.157730 -0.700241 0.740430 -1.601613 -7.559551 5.822053 9.064493 -0.416017 4.450426 3.141259 0.462810 0.126500 0.396310 18.100202 -10.264491 2.940846 -0.914996 2.944681 -29.471803 0.234249 -3.090924 16.499714 0.035794 -1.815916 3.808236 0.149260 0.083590 0.073520 -3.347825 -3.117336 -7.654422 8.301798 -5.507915 13.856812 0.248687 -5.021379 10.168035 1.470412 -1.238363 -8.231266 -7.305959 0.448779 46.177033 -0.069780 -2.183780 -11.316680 -13.474835 -1.531823 2.094327 -37.796013 0.153100 -8.500136 -2.296789 -35.623902 -1.339696 -3.501423 2.833436 0.655590 -0.027060 0.035290 0.152720 11.304510 1.378726 4.350066 38.417350 -7.683932 -15.819843 9.929623 51.031322 2.035176 1.795053 -1.492551 -0.263770 0.299260 -0.048100 -0.283030 
-0.424790 17.778990 1.565990 -4.933261 15.497175 -5.828612 -15.505644 13.659980 3.211955 -2.028414 1.092250 -0.849996 -7.969419 5.788473 7.999427 -0.355746 4.488798 3.147131 0.428830 0.077510 0.363600 18.007075 -10.126617 2.903818 -2.775982 2.228776 -27.975941 1.887096 -2.677701 9.027102 0.093193 -1.551610 3.929780 0.118460 0.112610 0.081620 -3.003714 -3.232385 -7.619398 5.059385 -4.400822 11.450228 1.743242 -4.396240 10.364849 1.234250 -1.178548 -8.738657 -7.310595 0.308555 46.139456 0.056160 -2.547960 -9.345690 -12.108348 -2.084826 2.658953 -38.490333 -0.960244 -7.437780 -0.530099 -32.727286 -1.686218 -3.532238 2.833297 0.625660 -0.003460 0.003400 0.155490 10.587072 2.396279 4.834590 37.863231 -6.983793 -15.064077 6.971668 49.711178 1.063309 1.805070 -1.474406 -0.261520 0.276860 -0.035090 -0.271310 
-0.415740 17.702420 1.599440 -3.604571 15.459697 -4.885048 -15.571202 13.538047 3.243514 -3.319247 1.417662 -0.289961 -8.133555 5.732467 7.253945 -0.272204 4.457391 3.177422 0.390900 0.031340 0.336080 17.962266 -10.018546 2.959076 -4.742164 1.828177 -27.502107 3.259882 -2.461562 4.636579 0.095049 -1.578071 3.936491 0.073080 0.117530 0.072940 -2.824073 -3.175074 -7.657463 2.859567 -3.516407 9.958769 2.394453 -3.724040 10.090591 1.142300 -1.172385 -9.608620 -7.355184 0.031827 46.312423 0.328380 -3.032150 -7.351970 -10.631269 -3.075481 3.423938 -39.243462 -1.702915 -6.699150 1.277564 -30.425424 -1.981436 -3.521907 2.837058 0.600070 -0.006550 -0.009370 0.160940 9.385972 3.782912 5.646878 38.617984 -6.522079 -14.849742 3.100784 48.657860 -0.276131 1.838083 -1.444262 -0.250390 0.249450 -0.041940 -0.253210 
-0.403350 17.634980 1.624370 -2.935880 15.509925 -4.226730 -15.568695 13.459304 3.240273 -3.834614 1.536990 -0.294607 -8.450732 5.842080 7.415744 -0.239395 4.495862 3.198899 0.299810 -0.069440 0.251860 17.966816 -9.991329 3.022726 -5.825309 1.717810 -27.643480 3.752704 -2.365015 2.898876 0.129840 -1.637018 3.956014 0.019560 0.183860 0.038930 -2.832462 -3.049027 -7.700889 2.241117 -3.029166 9.149229 2.326334 -3.230175 9.438378 0.981371 -1.550348 -10.399382 -7.922497 0.157485 45.499059 1.050020 -3.586180 -5.094480 -9.402466 -4.058680 4.083516 -40.183649 -2.330838 -6.036020 2.889079 -28.346852 -2.233169 -3.552022 2.791760 0.580620 0.020790 -0.065240 0.165920 8.443159 5.233887 6.391536 39.651108 -5.984337 -14.813538 -1.175680 47.622717 -1.727621 1.838003 -1.380393 -0.292520 0.273400 -0.004600 -0.236790 
